<?xml version="1.0" encoding="utf-8"?>
<!-- Generator: Adobe Illustrator 14.0.0, SVG Export Plug-In . SVG Version: 6.00 Build 43363)  -->
<!DOCTYPE svg PUBLIC "-//W3C//DTD SVG 1.1//EN" "http://www.w3.org/Graphics/SVG/1.1/DTD/svg11.dtd">
<svg version="1.1" id="Layer_1" xmlns="http://www.w3.org/2000/svg" xmlns:xlink="http://www.w3.org/1999/xlink" x="0px" y="0px"
	 width="612px" height="792px" viewBox="0 0 612 792" enable-background="new 0 0 612 792" xml:space="preserve">
<g>
	<polygon fill-rule="evenodd" clip-rule="evenodd" fill="#FFFFFF" points="209,300 401.756,300 401.756,492.756 209,492.756 
		209,300 	"/>
	<path fill-rule="evenodd" clip-rule="evenodd" fill="#008348" d="M282.178,476.133c-2.894-1.352-5.933-2.701-8.682-4.389
		c0-0.145-0.145-0.291-0.289-0.482c0.771-0.627,1.736-1.447,2.701-2.219c0-1.303,0.193-2.605,0.337-4.053
		c0.145,0,0.338,0,0.482-0.145c3.039,1.447,6.125,2.895,9.309,4.342c11.093,3.666,20.064,3.906,31.592,2.557
		c6.85-1.689,11.962-3.521,18.328-6.898c0.145,0,0.338,0,0.627,0.145c0,1.303,0,2.605,0,4.053c0.82,0.627,1.785,1.254,2.75,1.93
		c0,0.145,0.145,0.289,0.337,0.627c-8.055,4.822-15.53,6.848-24.646,8.537C303.015,480.666,293.802,480.281,282.178,476.133
		L282.178,476.133z"/>
	<path fill-rule="evenodd" clip-rule="evenodd" fill="#00538E" d="M306.391,469.67c-1.447,0-3.087,0-4.727-0.145
		c-1.785-0.338-3.714-0.676-5.643-0.965c-1.736-2.268-3.521-4.535-5.45-6.945c0-1.93-0.145-3.859-0.337-5.934
		c0.82-0.482,1.64-0.965,2.411-1.447c1.158-0.482,2.267-0.963,3.569-1.445c1.109,0,2.219,0.145,3.521,0.289
		c0-0.289,0-0.627-0.145-1.109c-0.193-0.338-0.338-0.627-0.675-1.109c0,0,0-0.193,0.193-0.338c3.713,0.338,7.572,0.82,11.431,1.303
		c1.108-0.193,2.411-0.338,3.665-0.482c2.46-0.82,4.872-1.641,7.283-2.412c1.109,0.145,2.412,0.289,3.666,0.627
		c0.675,0,1.302,0,1.929-0.145c1.447-0.482,2.895-1.158,4.39-1.785c0-0.145,0.145-0.338,0.289-0.627
		c-0.145-1.303-0.289-2.604-0.627-4.051c-0.145-0.82-0.482-1.592-0.82-2.557c-0.964-0.965-1.929-2.121-2.894-3.232
		c-0.145-1.107-0.338-2.266-0.627-3.52c-1.302-0.82-2.604-1.785-4.052-2.75c-0.627-0.145-1.254-0.482-1.929-0.82
		c-0.145,0.676-0.29,1.447-0.482,2.268c0.192,0.82,0.338,1.592,0.676,2.412c0.626,0.82,1.446,1.592,2.218,2.557
		c0.193,0.818,0.482,1.783,0.82,2.748c0,0.482-0.145,0.965-0.338,1.447c-0.145,0.338-0.482,0.627-0.771,0.965
		c-0.965,0.482-2.122,0.965-3.231,1.447c-0.627,0-1.303,0-2.074,0.145c-0.193,0.193-0.482,0.338-0.82,0.531
		c-0.337-0.049-0.627,0-1.157,0.145c-1.93-0.338-3.858-0.676-5.933-1.158c-0.482,0.82-0.965,1.639-1.446,2.459
		c-0.482,0.145-1.11,0.289-1.785,0.482c-0.145,0.145-0.482,0.289-0.771,0.482c-1.929,0.145-4.052,0.289-6.125,0.627
		c-0.82-0.145-1.785-0.482-2.75-0.82c-0.337-0.145-0.627-0.289-1.109-0.627c-0.482-0.482-0.964-0.965-1.447-1.59
		c0-0.531-0.193-1.014-0.338-1.641c-0.337,0-0.627-0.145-1.109-0.338c-0.482,0.193-1.157,0.338-1.784,0.676
		c-0.627,0.627-1.303,1.303-2.074,2.074c-1.447,0.482-3.086,0.963-4.679,1.639c-1.302,0-2.749,0.145-4.196,0.289
		c-0.965,0-1.93-0.145-2.894-0.289c-0.965-0.193-1.929-0.482-2.894-0.82c-0.482-0.336-0.964-0.627-1.591-0.965
		c-0.338-0.963-0.675-2.121-1.013-3.23c-0.145,0-0.29-0.145-0.627-0.338c0-0.289-0.145-0.627-0.338-1.109c0-0.482,0-1.109,0-1.785
		c-0.289-0.289-0.626-0.771-0.964-1.254c0-0.676,0-1.301-0.145-2.121c0.338-3.184,0.821-6.607,1.303-9.984
		c0.145-0.145,0.289-0.482,0.482-0.771c0.29-1.303,0.82-2.75,1.303-4.197c0.289-0.818,0.771-1.592,1.253-2.557
		c0-0.191,0-0.48-0.145-0.818c-3.375-0.627-6.945-1.303-10.466-2.123c-4.196-1.592-8.392-3.377-12.54-5.111
		c0.145-2.123,0.289-4.197,0.627-6.271c0.482-1.93,0.964-3.906,1.447-5.836c0.964-2.556,2.17-5.112,3.135-7.717
		c10.128-22.766,35.402-36.222,62.075-30.724c12.733,3.135,21.704,8.489,30.868,18.666c6.656,8.875,9.937,16.496,12.396,27.203
		c0.192,1.93,0.337,3.859,0.675,5.934c0,2.893,0,5.836-0.193,8.873c-0.675,5.934-1.881,10.756-4.34,16.4
		c-0.965,1.783-1.93,3.568-2.895,5.498c-0.82,1.447-1.784,2.895-2.749,4.34c-1.254,1.592-2.557,3.232-4.003,4.969
		c-5.934,6.078-10.66,9.646-18.521,13.697c-2.363,1.063-4.92,2.025-7.862,2.895C316.037,469.09,311.89,469.572,306.391,469.67
		L306.391,469.67z M312.95,382.128c0,0-0.192-0.193-0.337-0.337c0,0,0.145,0,0.337-0.145c0.145,0,0.29,0.145,0.627,0.289
		C313.433,381.935,313.24,381.935,312.95,382.128L312.95,382.128z M321.295,379.717c-0.145,0-0.289,0-0.627-0.193
		c0-0.145,0-0.289,0.145-0.627c0.338,0,0.819,0,1.302,0.145c0,0.193,0,0.338,0,0.482
		C321.97,379.523,321.632,379.523,321.295,379.717L321.295,379.717z M300.072,445.844c-0.82-0.146-1.64-0.291-2.411-0.629
		c-0.338-0.145-0.676-0.48-0.965-0.818c-0.193-0.338-0.337-0.627-0.675-1.109c-0.145-0.82-0.29-1.785-0.482-2.75
		c0.193-1.592,0.482-3.23,0.82-4.822c-0.145-0.145-0.338-0.482-0.482-0.82c0-0.627,0-1.254,0-2.074
		c-0.145,0-0.338-0.145-0.482-0.338c-0.145-0.482-0.338-0.965-0.482-1.592c0.145-1.447,0.482-2.895,0.82-4.342
		c-0.193-0.963-0.337-1.928-0.675-2.893c0.193-0.482,0.338-1.158,0.482-1.785c0-0.338,0-0.627-0.145-1.109
		c-0.145-0.193-0.482-0.338-0.82-0.676c-0.29,0.193-0.627,0.338-0.965,0.676c-0.29,0.289-0.627,0.771-1.109,1.254
		c0,0.193,0,0.338-0.145,0.676c0.289,0.627,0.626,1.447,0.964,2.219c0,0.676,0,1.447,0.145,2.268
		c-0.483,0.963-0.965,1.928-1.447,3.086c-1.447,2.074-3.039,4.148-4.678,6.414c0,0.482,0,0.965-0.145,1.594
		c0.482,0.963,0.965,1.928,1.447,2.893c0,0.338,0,0.676,0.145,0.965c-0.145,0.482-0.29,0.965-0.482,1.447
		c-0.145,0-0.29,0-0.627,0.193c-0.145,0-0.482,0-0.82-0.193c-0.145,0.338-0.482,0.676-0.82,1.014c-0.29-0.049-0.772,0-1.254-0.193
		c0,0,0-0.145-0.192-0.338c-0.145,0.338-0.29,0.676-0.627,1.012c-0.965,0-2.074,0.145-3.231,0.291c-1.109,0-2.219,0-3.521-0.146
		c-0.82-0.336-1.785-0.625-2.749-1.156c0-0.145-0.145-0.289-0.29-0.627c0-0.965-0.193-1.93-0.338-3.039
		c-0.337-0.193-0.82-0.338-1.302-0.482c0-0.965-0.145-2.123-0.29-3.232c-0.192,0-0.337-0.145-0.53-0.336
		c0-0.145-0.145-0.289-0.29-0.627c0.145-2.412,0.29-4.969,0.482-7.574c0.482-1.783,0.965-3.52,1.447-5.305
		c0.482-1.109,0.964-2.268,1.447-3.377c0.482-0.627,0.964-1.447,1.447-2.266c3.521-3.039,7.09-6.271,10.804-9.502
		c0.145-0.289,0.29-0.627,0.627-0.965c1.302-1.109,2.557-2.412,3.858-3.666c1.109-1.639,2.267-3.23,3.521-4.871
		c3.231-2.219,6.463-4.485,9.695-6.752c1.254-1.736,2.701-3.666,4.148-5.643c0.675-0.627,1.302-1.254,1.929-2.074
		c0.338-0.146,0.819-0.338,1.303-0.483c-0.338-0.145-0.627-0.482-1.109-0.82c-0.193-0.145-0.338-0.482-0.676-0.771
		c0-0.193,0-0.338-0.145-0.675c0.145-0.145,0.338-0.29,0.627-0.482c0.676,0,1.303-0.145,2.122-0.29c0.145,0,0.482,0,0.771,0.145
		c0.193-0.145,0.482-0.482,0.82-0.82c0.965-0.482,1.93-0.964,2.894-1.447c0.82-0.145,1.641-0.29,2.412-0.627
		c1.303,0.145,2.604,0.337,4.052,0.627c1.446,0,2.894,0.193,4.341,0.338c0.289,0,0.771,0.145,1.254,0.337
		c0,0.289,0.193,0.771,0.338,1.254c-0.145,0.337-0.338,0.82-0.627,1.302c-0.193,0.145-0.338,0.338-0.676,0.482c0,0,0,0,0.193,0.145
		c0.145,0,0.482,0,0.771-0.145c0,0.145,0,0.337,0.193,0.482c-0.193,0.337-0.338,0.627-0.676,0.964
		c-0.965,0.965-2.074,1.93-3.184,2.894c-0.482,0.482-0.965,1.158-1.446,1.785c-0.82,1.929-1.641,3.859-2.604,5.933
		c-0.965,3.376-2.074,6.753-3.184,10.321c0,0.965,0.145,1.93,0.289,3.039c0,3.568,0.193,7.09,0.338,10.803
		c0,2.895-0.145,5.789-0.338,8.828c-0.145,1.639-0.289,3.23-0.482,5.016c0,0.82,0.193,1.785,0.338,2.75
		c0.965,1.254,1.93,2.701,2.894,4.146c0,0.482,0,0.965,0.146,1.447c0,0.338-0.146,0.676-0.29,0.965c-0.192,0-0.337,0-0.675,0.193
		c-0.145,0-0.29-0.193-0.482-0.338c-0.145,0.145-0.29,0.338-0.482,0.627c-0.289,0.193-0.627,0.338-1.109,0.482
		c-0.338,0-0.627,0-1.109-0.145c0,0.145-0.193,0.338-0.338,0.482c-0.145,0-0.338,0.145-0.627,0.338c-1.157,0-2.46-0.193-3.714-0.338
		c-0.675-0.482-1.446-0.965-2.267-1.447c-0.145-0.627-0.338-1.303-0.627-1.93c-0.193,0-0.338-0.145-0.482-0.338
		c0-1.254,0-2.555,0.145-4.002c-0.145-0.145-0.337-0.338-0.627-0.627c0.145-1.447,0.482-3.088,0.771-4.68
		c-0.145-0.965-0.289-1.928-0.481-2.895c0-0.48,0.192-0.963,0.337-1.639c0.145-0.145,0.482-0.289,0.82-0.627
		c0.145-0.145,0.289-0.482,0.482-0.82c0.145-0.627,0.289-1.447,0.626-2.219c0-0.193-0.144-0.338-0.337-0.676
		c-0.289,0.193-0.771,0.338-1.254,0.482c-0.338-0.289-0.675-0.627-0.965-0.965c-0.338,0.193-0.819,0.338-1.302,0.676
		c0,0.145-0.146,0.289-0.338,0.482c-0.627,5.596-1.447,11.238-2.219,16.881c0,0.482,0.145,0.965,0.289,1.447
		c0.482,0.627,0.965,1.303,1.447,1.93c0.192,0.482,0.338,0.965,0.482,1.592c0,0.338-0.145,0.82-0.29,1.303
		c-0.192,0.145-0.481,0.338-0.819,0.482c-0.145,0-0.338-0.145-0.482-0.289c-0.145,0.145-0.482,0.48-0.82,0.771
		c-0.145,0-0.482,0-0.772,0c-0.193-0.146-0.337-0.291-0.482-0.627c-0.338,0.336-0.675,0.627-1.158,0.963
		C301.857,445.697,301.037,445.697,300.072,445.844L300.072,445.844z M269.3,411.549c-0.145-0.145-0.29-0.289-0.627-0.48
		c0,0,0.145-0.146,0.337-0.291c2.701,0,5.451,0,8.345,0.145c0,0.146,0,0.338-0.145,0.627
		C274.654,411.549,272.05,411.549,269.3,411.549L269.3,411.549z M342.372,442.467c-0.482-0.145-0.965-0.338-1.446-0.482
		c0-0.145,0.192-0.338,0.337-0.482c1.109,0,2.267,0,3.521-0.145c0.53,0,1.013,0.145,1.495,0.289c0,0,0,0.193,0.145,0.338
		c0,0,0,0.145-0.145,0.338C344.977,442.322,343.675,442.322,342.372,442.467L342.372,442.467z M346.762,438.271c0,0-0.193,0-0.338,0
		c0-0.146,0-0.291,0-0.629c0,0,0.145,0,0.338-0.145c1.735,0,3.665,0.145,5.595,0.289c0,0,0,0.193,0,0.338
		C350.62,438.125,348.69,438.125,346.762,438.271L346.762,438.271z M334.028,436.342c-0.146,0-0.338,0-0.482-0.145
		c0,0,0-0.145-0.146-0.338c0-0.145,0.146-0.289,0.29-0.627c2.749,0,5.498,0,8.393-0.146c0.145,0.146,0.289,0.291,0.482,0.629
		c-0.193,0.145-0.338,0.338-0.482,0.627C339.479,436.342,336.777,436.342,334.028,436.342L334.028,436.342z M351.729,432
		c-2.267,0-4.679,0-7.091-0.145c0,0,0-0.145-0.145-0.338c0-0.145,0-0.289,0.145-0.482c2.75,0,5.499,0,8.393-0.145
		c0,0.145,0.145,0.338,0.289,0.627c0,0,0,0.193-0.145,0.338C352.694,431.855,352.212,431.855,351.729,432L351.729,432z
		 M337.066,429.734c0,0,0-0.146,0.193-0.291c1.446,0,2.894,0,4.341,0.145c0.145,0,0.289,0.146,0.482,0.338
		C340.443,429.926,338.852,429.926,337.066,429.734L337.066,429.734z M336.102,425.875c-0.771,0-1.736,0-2.701-0.145
		c0-0.145-0.192-0.338-0.337-0.482c0-0.145,0.145-0.338,0.337-0.482c0.482,0,0.965-0.145,1.592-0.338c1.93,0,3.859,0,5.788,0
		c0.627,0,1.303,0.193,2.074,0.338c0.192,0.145,0.338,0.338,0.482,0.482c-0.145,0.145-0.29,0.338-0.482,0.627
		C340.636,425.875,338.369,425.875,336.102,425.875L336.102,425.875z M351.392,425.248c-0.482-0.145-0.965-0.338-1.447-0.627
		c0.193-0.193,0.338-0.338,0.482-0.482c2.122,0,4.341,0,6.607,0.145c0,0,0,0.145,0.146,0.338c0,0,0,0.145-0.146,0.289
		C355.25,424.91,353.32,425.104,351.392,425.248L351.392,425.248z M325.346,422.209c-0.192,0-0.337-0.193-0.482-0.338
		c0,0,0-0.145,0.146-0.338c0.964,0,1.929,0,3.038,0c0,0,0,0.193,0.193,0.338c0,0-0.193,0.145-0.338,0.338
		C327.082,422.209,326.311,422.209,325.346,422.209L325.346,422.209z M348.208,421.051c-2.411,0-4.871,0-7.428-0.145
		c0,0,0-0.145-0.145-0.338c0,0,0.145-0.145,0.29-0.289c2.749,0,5.643,0,8.537,0c0,0.145,0,0.289,0.192,0.482
		c0,0-0.192,0.145-0.338,0.289C348.979,421.051,348.69,421.051,348.208,421.051L348.208,421.051z M331.616,418.832
		c-0.819,0-1.784,0-2.749-0.191c0,0,0-0.145-0.145-0.289c0-0.193,0.145-0.34,0.289-0.484c1.495,0,2.942,0,4.389,0
		c0.29,0,0.628,0.145,1.109,0.291c0,0.193,0,0.338,0,0.482C333.546,418.641,332.581,418.641,331.616,418.832L331.616,418.832z
		 M348.69,416.566c0,0,0,0-0.193-0.145c0.193,0,0.338-0.193,0.482-0.338c0.82,0,1.641,0,2.412,0c0,0.145,0,0.338,0.192,0.482
		C350.62,416.566,349.655,416.566,348.69,416.566L348.69,416.566z M339.334,415.119c-1.447,0-2.895,0-4.342-0.193
		c0-0.145-0.145-0.289-0.337-0.482c0.192-0.145,0.337-0.289,0.675-0.482c2.219,0,4.63,0.193,7.042,0.338c0,0,0,0.145,0.193,0.338
		c0,0,0,0.145-0.193,0.289C341.407,414.926,340.443,414.926,339.334,415.119L339.334,415.119z M347.243,412.707
		c-0.964,0-2.122,0-3.231-0.191c0,0,0-0.146-0.192-0.291c0-0.193,0-0.338,0.192-0.482c2.895,0,5.933,0,9.02,0.145
		c0,0.145,0,0.338,0,0.482c-0.192,0-0.337,0.146-0.675,0.338C350.765,412.707,348.979,412.707,347.243,412.707L347.243,412.707z
		 M327.275,411.742c-0.338,0-0.675-0.193-1.157-0.338c0,0,0-0.145,0.192-0.336c2.412,0,4.968,0,7.572-0.146
		c0.482,0,0.965,0,1.447,0.146c0,0.191,0,0.336,0,0.674C332.726,411.742,329.977,411.742,327.275,411.742L327.275,411.742z"/>
	<path fill-rule="evenodd" clip-rule="evenodd" fill="#FFFFFF" d="M301.52,461.953c-2.894-0.482-5.788-1.109-8.682-1.785
		c0-0.145-0.193-0.289-0.337-0.482c0-0.82,0-1.592-0.145-2.412c0-0.145,0.145-0.482,0.289-0.82c0.965-0.48,2.123-0.963,3.232-1.447
		c1.447,0.193,2.894,0.338,4.485,0.484c0.337,0,0.675,0.191,1.013,0.336c0.145,0.482,0.482,0.965,0.772,1.592
		c0,0.82,0,1.641-0.145,2.605c0,0.482,0,0.965,0.145,1.447C302.002,461.615,301.857,461.809,301.52,461.953L301.52,461.953z"/>
	<path fill-rule="evenodd" clip-rule="evenodd" fill="#FFFFFF" d="M310.201,460.844c-1.785-0.338-3.521-0.676-5.45-0.965
		c0-0.193-0.193-0.338-0.337-0.676c-0.145-1.303-0.338-2.557-0.482-3.859c-0.337-0.338-0.627-0.818-0.965-1.301
		c0-0.291-0.145-0.627-0.337-1.109c0.193,0,0.337,0,0.675-0.145c2.219,0.289,4.486,0.627,6.897,1.109
		c0.482,0.482,0.965,1.107,1.446,1.783c0,1.592,0,3.377-0.144,5.162C311.166,460.844,310.684,460.844,310.201,460.844
		L310.201,460.844z"/>
	<path fill-rule="evenodd" clip-rule="evenodd" fill="#FFFFFF" d="M314.542,460.168c-0.145-1.447-0.338-3.039-0.627-4.678
		c-0.193-0.484-0.338-0.965-0.675-1.592c0,0,0-0.146,0.192-0.338c2.749-0.771,5.644-1.736,8.537-2.701
		c0.965,0.289,1.93,0.627,2.894,0.965c0.146,1.592,0.29,3.375,0.482,5.111c-0.192,0.193-0.337,0.338-0.675,0.482
		c-0.965,0-2.074,0-3.184,0.193c-1.302,0.482-2.604,0.965-4.052,1.447c-0.627,0.338-1.254,0.627-2.073,1.109
		C315.169,460.168,314.88,460.168,314.542,460.168L314.542,460.168z"/>
	<path fill-rule="evenodd" clip-rule="evenodd" fill="#FFFFFF" d="M328.047,456.309c0-0.627-0.145-1.303-0.289-1.928
		c0-0.965,0.145-1.93,0.289-3.039c1.158-0.338,2.267-0.82,3.425-1.303c0,0,0.145,0.145,0.289,0.338c0,1.447,0.193,2.895,0.338,4.34
		c-0.338,0.289-0.82,0.627-1.302,0.965c-0.82,0.145-1.592,0.482-2.412,0.771C328.385,456.453,328.24,456.453,328.047,456.309
		L328.047,456.309z"/>
	<path fill-rule="evenodd" clip-rule="evenodd" fill="#008348" d="M260.329,443.77c-0.482-0.482-0.964-0.965-1.447-1.447
		c-1.302-2.268-2.749-4.535-4.196-6.945c-0.483-1.254-0.965-2.557-1.447-4.004c-0.192-0.82-0.337-1.639-0.675-2.604
		c0-1.736,0-3.666,0.192-5.596c0.146-0.82,0.29-1.641,0.627-2.412c0.482-0.82,0.965-1.639,1.447-2.41
		c0.145,0,0.337-0.193,0.482-0.34c0,0,0.145,0,0.337,0.146c0.29,1.639,0.627,3.23,0.965,5.016c0.965,2.219,1.929,4.631,2.894,7.09
		c0.145,0.771,0.482,1.736,0.82,2.701c0.145,1.158,0.29,2.268,0.627,3.568c0,2.219,0,4.486,0.145,6.754c0,0,0,0.145-0.145,0.289
		C260.812,443.576,260.619,443.576,260.329,443.77L260.329,443.77z M242.097,460.023c-1.254-0.965-2.556-1.93-4.003-2.895
		c-0.964-1.156-1.93-2.268-2.894-3.568c-0.964-1.447-1.929-2.895-2.894-4.342c-0.82-2.412-1.785-4.822-2.749-7.379
		c-0.627-1.303-1.302-2.605-1.93-3.859c0-0.338,0-0.674-0.145-0.965c0.145,0,0.29,0,0.482-0.193c1.109,0.965,2.412,1.93,3.714,2.895
		c0.965,1.158,2.074,2.268,3.183,3.377c0.965,1.447,1.93,3.086,2.894,4.678c0.82,2.412,1.785,5.018,2.75,7.572
		c0.627,1.447,1.447,2.895,2.267,4.342c0,0,0,0.193-0.192,0.338C242.435,460.023,242.29,460.023,242.097,460.023L242.097,460.023z
		 M261.293,470.779c-1.64-0.145-3.376-0.289-5.16-0.627c-1.158-0.482-2.412-0.965-3.714-1.447c-0.82-0.482-1.591-0.965-2.412-1.447
		c-1.591-1.447-3.231-2.895-4.968-4.486c-0.338-0.482-0.675-0.963-0.965-1.639c0.145,0,0.29,0,0.482-0.145
		c0.29,0.145,0.772,0.338,1.254,0.482c4.051,0.338,8.055,0.627,12.106,1.109c1.447,0.482,2.894,0.963,4.486,1.445
		c2.074,1.158,4.341,2.268,6.607,3.377c0,0.193,0.145,0.338,0.29,0.482c0.337,0.193,0.675,0.338,1.158,0.676
		c0,0,0,0.145,0.144,0.289c0,0.193,0,0.338-0.144,0.482c-2.123,0.338-4.197,0.82-6.271,1.303
		C263.223,470.635,262.258,470.635,261.293,470.779L261.293,470.779z M271.567,466.631c-0.965-0.338-1.93-0.82-2.894-1.303
		c-0.627-0.482-1.302-0.965-1.929-1.447c-0.482-0.482-1.109-1.109-1.785-1.783c-0.482-0.627-0.965-1.254-1.447-2.074
		c-0.482-0.82-0.965-1.785-1.447-2.75c-0.482-1.592-0.965-3.23-1.447-4.967c0-0.82-0.145-1.641-0.29-2.605
		c0-1.447,0.145-2.895,0.29-4.34c0.193-0.146,0.337-0.482,0.482-0.771c0.193-0.049,0.338,0.145,0.676,0.289
		c1.929,2.266,3.858,4.533,5.788,6.945c0.964,1.592,1.929,3.375,2.895,5.111c0.482,1.447,0.964,2.943,1.446,4.391
		c0.145,1.109,0.337,2.217,0.627,3.52c0,0.482,0,1.109-0.145,1.785C272.242,466.631,271.905,466.631,271.567,466.631
		L271.567,466.631z M256.905,458.865c-2.556-0.145-5.113-0.289-7.717-0.627c-0.771-0.482-1.736-0.965-2.701-1.447
		c-0.964-1.301-1.929-2.557-2.894-3.857c-0.675-1.109-1.303-2.268-2.123-3.377c0,0,0-0.145,0.145-0.338
		c2.604,0.338,5.354,0.82,8.055,1.303c0.337,0.145,0.675,0.338,0.964,0.482c0.193,0,0.482,0,0.82-0.145
		c0.145-0.965,0.337-1.93,0.626-2.895c0.483-1.158,0.965-2.268,1.447-3.375c0.193-0.676,0.338-1.303,0.482-2.123
		c0,0,0.192-0.145,0.338-0.338c0.337,0.193,0.627,0.482,0.964,0.82c0.82,1.447,1.785,3.086,2.749,4.678c0,1.592,0,3.232,0.145,4.824
		c-0.145,1.783-0.29,3.521-0.482,5.305c0,0.338-0.145,0.627-0.289,1.109c0,0-0.193,0-0.338,0.193
		C257.098,459.059,257.098,459.059,256.905,458.865L256.905,458.865z M249.043,448.447c-0.482-0.193-0.965-0.482-1.592-0.82
		c-2.267-0.627-4.534-1.303-6.945-2.074c-0.482-0.482-0.965-1.156-1.592-1.783c-0.965-2.123-1.93-4.197-2.894-6.463
		c0-0.484-0.193-0.965-0.337-1.447c0.145,0,0.337,0,0.627-0.145c0.482,0.145,0.965,0.482,1.64,0.818
		c0.772,0.145,1.592,0.289,2.412,0.627c1.447,0.627,3.038,1.447,4.678,2.268c0.482-0.965,0.965-1.93,1.447-3.086
		c0.965-1.592,1.93-3.184,3.039-4.969c0.145,0,0.338,0,0.482-0.145c0.482,1.109,0.965,2.219,1.447,3.377
		c0.337,0.965,0.626,2.072,0.964,3.182c-0.482,1.93-0.964,3.859-1.447,5.982c-0.482,1.445-0.965,2.893-1.447,4.484
		C249.38,448.254,249.188,448.254,249.043,448.447L249.043,448.447z M243.399,436.342c-2.074-1.109-4.196-2.219-6.415-3.521
		c-0.482-0.482-1.157-0.965-1.784-1.592c-0.145-0.338-0.482-0.676-0.82-1.158c-0.482-1.783-0.965-3.521-1.447-5.305
		c0-1.109-0.145-2.268-0.289-3.377c0,0,0.145,0,0.289-0.145c1.64,0.965,3.231,1.93,4.823,2.895c0.965,0.771,2.123,1.736,3.231,2.701
		c0.482-0.627,0.965-1.447,1.592-2.219c1.495-1.447,2.942-3.088,4.389-4.68c0.145,0,0.29,0,0.482-0.145
		c0.29,1.447,0.627,3.039,1.109,4.631c0,0.82,0,1.785-0.145,2.75c-0.193,0.627-0.338,1.301-0.675,1.928
		c-0.965,1.641-1.929,3.377-2.894,5.162c-0.145,0.482-0.29,0.965-0.627,1.592c-0.145,0.193-0.338,0.338-0.627,0.674
		C243.593,436.533,243.593,436.533,243.399,436.342L243.399,436.342z M240.023,423.318c-0.965-0.965-2.074-1.93-3.231-3.039
		c-1.109-0.965-2.219-1.928-3.521-2.893c-0.145-0.482-0.338-0.965-0.627-1.641c-0.193-1.303-0.338-2.75-0.482-4.197
		c0-1.445,0-3.037,0.145-4.629c0.145-0.193,0.338-0.338,0.482-0.676c1.929,1.785,3.858,3.715,5.933,5.643
		c0.193,0.338,0.337,0.82,0.675,1.303c0,0,0.145,0,0.29,0.145c0.675-0.627,1.302-1.303,2.122-1.93
		c1.302-0.818,2.556-1.59,4.003-2.41c0.482-0.482,0.964-0.965,1.447-1.447c0,0,0.193,0.145,0.338,0.338c0,1.254,0,2.557,0,3.857
		c0,0.965-0.145,1.93-0.338,2.895c-0.482,0.771-0.965,1.592-1.447,2.412c-1.592,1.93-3.231,4.002-4.968,6.125
		c-0.193,0-0.337,0.145-0.675,0.289C240.168,423.463,240.168,423.463,240.023,423.318L240.023,423.318z M239.686,409.477
		c-0.482-0.482-0.965-0.965-1.592-1.592c-0.482-0.82-1.11-1.785-1.785-2.75c-0.145-0.482-0.29-0.965-0.482-1.447
		c0-1.109,0.193-2.266,0.337-3.568c1.303-2.557,2.75-5.306,4.197-8.007c0.964-2.267,1.929-4.534,2.894-6.8
		c0.965-1.737,1.929-3.521,2.894-5.306c1.109-1.736,2.267-3.666,3.521-5.595c0.193-0.193,0.337-0.338,0.675-0.482
		c0,0,0.145,0,0.289,0.145c0,0.145,0,0.338,0.193,0.627c-2.412,4.341-4.823,8.682-7.235,13.071c-0.482,1.447-1.013,2.894-1.496,4.34
		c0,1.11,0.193,2.219,0.338,3.521c0.482,1.109,0.964,2.267,1.447,3.376c0.193,1.109,0.338,2.268,0.675,3.377
		c0,0.336-0.193,0.818-0.337,1.301c-1.109,1.785-2.412,3.521-3.714,5.307C240.361,409.139,240.023,409.33,239.686,409.477
		L239.686,409.477z"/>
	<path fill-rule="evenodd" clip-rule="evenodd" fill="#EF3E42" d="M321.15,408.367c-0.338-0.482-0.628-0.965-0.965-1.447
		c0-0.338,0-0.676-0.146-1.158c0.29-1.93,0.628-4.004,0.966-6.125c0,0,0.145,0,0.289-0.145c0.337-1.447,0.819-3.039,1.302-4.679
		c0.145-0.145,0.338-0.289,0.482-0.627c0.145-0.82,0.338-1.591,0.627-2.411c0.482-1.11,0.965-2.267,1.447-3.376
		c0.482-0.627,0.965-1.302,1.447-1.93c1.302-1.157,2.604-2.411,3.906-3.713c0-0.965,0.145-1.929,0.29-2.894
		c0-0.482-0.146-1.109-0.29-1.785c0,0-0.193-0.145-0.338-0.29c-1.929-0.193-4.051-0.337-6.125-0.482
		c-1.447-0.193-2.894-0.338-4.341-0.675c-0.627,0.193-1.447,0.337-2.268,0.675c-1.446,0.627-3.038,1.447-4.678,2.218
		c-0.771,0.193-1.736,0.338-2.701,0.675c-0.193,0-0.338,0.145-0.482,0.29c0,0.192-0.192,0.482-0.338,0.82
		c0.146,0.482,0.338,1.109,0.627,1.785c-1.736,2.412-3.521,4.823-5.45,7.379c-2.75,1.785-5.644,3.714-8.537,5.643
		c-0.965,0.965-1.93,2.074-3.039,3.232c-0.337,0.627-0.82,1.254-1.302,1.93c-2.267,2.266-4.485,4.678-6.945,7.09
		c-10.612,0-21.223-0.193-32.026-0.338c0-0.482,0-0.965-0.145-1.447c0.483-2.412,0.965-4.824,1.447-7.234
		c0.964-2.605,1.929-5.306,2.894-8.055c0.965-1.785,1.93-3.521,2.894-5.499c5.836-7.91,9.791-12.733,18.328-18.425
		c32.364-17.653,68.924-3.28,80.5,31.496c0.482,2.074,0.965,4.195,1.447,6.27c0,0.965,0,2.074,0.192,3.232
		C347.243,408.367,334.173,408.367,321.15,408.367L321.15,408.367z"/>
	<path fill-rule="evenodd" clip-rule="evenodd" fill="#00538E" d="M248.416,400.313c-0.338-0.82-0.675-1.641-0.965-2.605
		c-0.193-0.145-0.337-0.289-0.482-0.627c0-0.627,0-1.447,0.145-2.267c5.064-13.987,11.913-22.524,23.971-32.17
		c3.376-2.267,6.656-4.003,10.322-5.788c15.241-5.402,26.769-6.367,42.637-2.412c11.383,4.244,19.1,8.585,27.83,17.363
		c5.788,6.705,9.261,12.83,12.733,20.933c-0.145,0.627-0.338,1.302-0.627,2.074c-0.193,0.482-0.482,0.965-0.82,1.64
		c-0.145,0-0.338,0-0.482-0.193c-2.749-8.199-6.897-14.903-12.251-21.56c-8.199-8.199-14.565-12.396-25.418-16.736
		c-15.29-5.064-31.303-3.424-45.724,3.231c-17.942,10.756-24.695,20.933-30.386,38.924
		C248.705,400.119,248.561,400.119,248.416,400.313L248.416,400.313z"/>
	<path fill-rule="evenodd" clip-rule="evenodd" fill="#00538E" d="M396.007,399.492c-0.965-0.627-1.93-1.303-2.895-2.074
		c-0.965-1.158-1.93-2.267-3.087-3.376c-0.482-0.675-0.965-1.447-1.447-2.267c-0.481-0.965-0.964-1.93-1.446-3.039
		c-0.965-3.231-1.93-6.463-2.895-9.839c-0.482-3.713-1.109-7.428-1.784-11.093c-0.482-0.675-0.965-1.302-1.592-1.929
		c-0.145,0-0.482-0.193-0.82-0.337c0,0-0.144,0-0.289,0.145c0,2.749,0.146,5.499,0.289,8.248c0.338,0.482,0.676,0.964,1.158,1.447
		c0,1.93,0,4.003-0.193,6.077c0,0-0.145,0-0.289,0.193c-1.93-2.123-3.858-4.341-5.98-6.608c-3.232-2.894-6.608-5.788-9.984-8.682
		c-0.289-0.192-0.627-0.337-1.109-0.675c-0.338-0.29-0.627-0.627-0.965-0.965c-0.627-1.929-1.302-3.858-2.074-5.933
		c0-1.109,0-2.267-0.192-3.569c0-0.145,0.192-0.482,0.338-0.771c0.819-0.193,1.591-0.337,2.411-0.675
		c0-0.145,0.145-0.29,0.338-0.627c0-6.125,0-12.251,0.145-18.521c-0.627-0.482-1.447-0.965-2.267-1.447
		c-0.482-1.254-1.11-2.701-1.736-4.148c0-1.64,0-3.231,0-4.872c0.145,0,0.289,0,0.481-0.145c1.93,0.965,4.004,1.929,6.078,2.894
		c1.784,0.965,3.569,1.929,5.305,2.894c2.942,1.784,5.837,3.714,8.875,5.643c1.303,0.965,2.557,1.929,3.858,2.894
		c1.592,1.447,3.231,2.894,4.823,4.341c0.193,0.337,0.338,0.675,0.676,1.157c0.145,0.145,0.482,0.29,0.771,0.627
		c0.82,1.302,1.784,2.749,2.749,4.196c0.627,1.592,1.447,3.184,2.268,4.823c0.145,0.965,0.289,1.93,0.627,2.894
		c0,1.109,0,2.267,0.145,3.521c-0.482,1.158-0.965,2.267-1.447,3.376c-0.627,0.482-1.254,0.964-2.073,1.64
		c-1.303,0.29-2.75,0.627-4.197,1.109c0,0.145,0,0.482,0,0.82c0.965,1.447,1.93,3.039,2.895,4.63
		c0.482,0.482,0.965,1.158,1.447,1.785c1.157,2.267,2.267,4.534,3.568,6.945c0,6.27,0,12.685,0.145,19.149
		c-0.145,0-0.337,0.145-0.481,0.289C396.151,399.637,396.151,399.637,396.007,399.492L396.007,399.492z M394.849,397.418
		c-0.482-0.482-1.109-0.965-1.736-1.447c-0.965-1.302-1.93-2.749-2.894-4.196c-0.193-0.482-0.482-1.11-0.82-1.785
		c0,0,0.145-0.145,0.338-0.289c0.627,0.482,1.254,1.109,2.074,1.736c0.145,0,0.337,0,0.627-0.145c0-0.483,0.192-0.965,0.338-1.447
		c0-4.196,0.145-8.537,0.337-12.878c0.627,1.302,1.447,2.556,2.219,4.003c0,5.305,0,10.804,0.193,16.254
		C395.331,397.225,395.187,397.225,394.849,397.418L394.849,397.418z M379.56,378.559c-0.772-0.965-1.736-2.074-2.701-3.184
		c-2.122-1.929-4.196-3.907-6.318-5.98c-1.93-1.592-3.858-3.231-5.933-4.824c-0.338-0.337-0.627-0.82-0.965-1.302
		c-0.145-0.627-0.338-1.254-0.627-2.074c0-0.145,0.145-0.482,0.289-0.82c1.303,0.964,2.75,1.929,4.196,2.894
		c3.039,2.604,6.271,5.161,9.502,7.717c0-1.447,0.145-3.038,0.338-4.63c-0.482-0.819-1.158-1.64-1.785-2.604
		c0-2.074,0-4.148-0.145-6.27c0-0.145,0.145-0.29,0.289-0.627c0.676,0.482,1.303,0.965,2.123,1.447
		c0.482,0.482,0.964,1.11,1.591,1.785c0.483,0.965,1.109,2.074,1.785,3.184c0,0.193,0,0.338-0.193,0.675
		c-0.771-0.482-1.592-1.158-2.411-1.785c0,3.231-0.145,6.608-0.289,9.984c0.145,0.82,0.289,1.592,0.626,2.412
		c0.146,0.337,0.482,0.627,0.82,0.964c0,0.965,0.146,1.93,0.289,3.039c-0.144,0-0.289,0-0.481,0.193
		C379.56,378.752,379.56,378.752,379.56,378.559L379.56,378.559z M387.951,364.234c-0.337-0.289-0.675-0.626-0.964-0.964
		c0-0.29,0-0.627,0.145-0.965c1.109-0.482,2.267-0.965,3.569-1.447c0.627-0.482,1.254-0.965,2.074-1.447
		c0.481-0.627,0.964-1.254,1.446-1.93c0-0.145,0.145-0.482,0.338-0.82c0,0,0.145,0,0.289,0c0.193,0.482,0.338,1.013,0.482,1.64
		c-0.145,0.965-0.289,1.93-0.627,3.039c-0.82,0.82-1.592,1.785-2.557,2.75C390.846,364.089,389.398,364.089,387.951,364.234
		L387.951,364.234z M377.341,352.321c-0.482-0.145-0.965-0.482-1.641-0.772c0-0.193-0.145-0.337-0.289-0.482
		c0-4.34,0.145-8.875,0.289-13.36c0.193,0,0.482,0,0.82,0.145c0.965,0.627,1.93,1.447,2.894,2.267
		c0.483,0.965,0.965,1.93,1.447,2.894c0,0.145,0,0.337-0.145,0.483c0,0-0.193,0-0.338,0.145c-0.481-0.145-0.965-0.482-1.592-0.772
		c0,0-0.192,0.145-0.337,0.29c-0.145,2.894-0.338,5.98-0.482,9.02C377.823,352.176,377.63,352.176,377.341,352.321L377.341,352.321z
		 M379.897,351.066c0-1.784,0-3.569-0.146-5.498c0,0,0.146,0,0.289-0.145c0.193,0,0.482,0.145,0.82,0.338
		c0.145,0.482,0.338,1.109,0.627,1.736c-0.289,1.157-0.627,2.267-0.965,3.376c-0.145,0-0.289,0.192-0.482,0.337
		C380.041,351.211,380.041,351.211,379.897,351.066L379.897,351.066z M363.016,332.208c-0.193,0-0.338-0.145-0.676-0.29
		c-0.145-0.338-0.289-0.82-0.482-1.302c0.193,0,0.338-0.145,0.676-0.337c0.145,0.337,0.482,0.675,0.771,0.964
		c0,0.337,0,0.675,0.193,0.965C363.305,332.208,363.16,332.208,363.016,332.208L363.016,332.208z M356.697,361.195l-14.808-7.717
		c-0.964-1.929-1.93-3.858-2.894-5.788c0-1.158,0-2.267,0.192-3.376c0.146-0.193,0.482-0.337,0.771-0.675
		c0-0.145,0-0.29,0.193-0.482c-0.965-0.29-1.929-0.627-3.087-1.109c0,0-0.145,0-0.289,0.145c0,1.157,0,2.267-0.193,3.376
		c0.338,0.482,0.676,0.964,1.158,1.447c0,0.82,0.145,1.64,0.289,2.604c0,0.627-0.145,1.254-0.289,1.929c0,0-0.193,0-0.338,0.145
		c-3.714-1.11-7.428-2.267-11.094-3.521c-0.338-0.193-0.675-0.482-1.157-0.82c-0.627-1.302-1.254-2.749-2.074-4.196
		c0-0.965,0-1.93-0.145-2.894c0-0.145,0-0.482,0.145-0.82c0.482-0.145,0.965-0.289,1.447-0.627c0.337-0.144,0.627-0.482,0.965-0.82
		c0.145-0.771,0.481-1.591,0.819-2.556c0.482-3.231,0.965-6.415,1.447-9.839c0-0.627,0-1.254-0.192-2.074
		c-0.772-1.784-1.737-3.521-2.702-5.306c0-1.302,0-2.749,0.146-4.196c0,0,0.145-0.144,0.337-0.289
		c1.255,0.145,2.557,0.289,3.859,0.482c2.267,0.482,4.485,0.965,6.896,1.447c3.377,0.965,6.945,1.93,10.467,2.894
		c1.784,0.627,3.569,1.254,5.498,2.074c0.965,1.591,1.93,3.231,2.895,4.968c0,0.482,0.145,0.965,0.289,1.64
		c0,1.447,0,2.894-0.145,4.341c-0.482,0.145-0.965,0.338-1.447,0.627c0,0,0,0.193-0.145,0.337c0.289,4.003,0.771,8.2,1.254,12.396
		c0.193,1.785,0.482,3.521,0.82,5.305c0.145,0.627,0.338,1.447,0.627,2.267c0.338,0.289,0.675,0.772,1.157,1.254
		c0,2.267,0,4.678,0.146,7.09c-0.146,0.193-0.338,0.337-0.628,0.482C356.89,361.34,356.89,361.34,356.697,361.195L356.697,361.195z
		 M355.732,359.411l-12.878-6.753c-0.482-0.964-0.965-1.929-1.447-2.894c0-0.145,0.193-0.337,0.338-0.627
		c3.569,1.737,7.234,3.521,10.949,5.45c0.145,0,0.481,0,0.819-0.145c0-0.675,0-1.302,0.145-1.929c0-0.675,0-1.302-0.145-2.122
		c-0.338-0.145-0.675-0.29-0.965-0.627c-0.192-0.482-0.337-1.109-0.675-1.785l-2.701-21.415c0.29-0.145,0.771-0.482,1.254-0.772
		c0.193,0,0.338,0,0.676,0.145c0.289,0,0.627-0.145,0.964-0.337c0.146-0.29,0.29-0.627,0.482-0.964
		c0.29,0.675,0.771,1.302,1.254,1.929c0,1.302,0,2.604,0,4.051c-0.289,0.145-0.771,0.338-1.254,0.627
		c-0.192,0.675-0.337,1.447-0.482,2.267c0.628,4.679,1.254,9.357,1.93,14.18c0.145,1.254,0.482,2.556,0.771,4.003
		c0.482,0.82,0.965,1.784,1.447,2.749C356.07,356.034,355.926,357.674,355.732,359.411L355.732,359.411z M335.813,349.909
		c-2.894-0.964-5.836-1.929-8.73-2.894c-0.289-0.145-0.627-0.482-0.964-0.772c-0.29-0.675-0.627-1.302-0.965-2.122
		c0.338,0,0.675,0,0.965-0.145c2.267,0.627,4.533,1.447,6.801,2.267c0.481,0,0.964,0,1.591-0.193c0-0.482,0.146-0.964,0.338-1.447
		c0,0,0.145,0,0.29,0.193c0.192,0.482,0.337,1.109,0.675,1.736c0.145,0.193,0.482,0.482,0.771,0.82c0,0.338,0,0.627,0.193,0.965
		c0,0.482,0,0.965-0.193,1.591C336.439,349.909,336.102,349.909,335.813,349.909L335.813,349.909z M334.848,343.639
		c0-0.482-0.192-0.965-0.338-1.592c-0.145-0.193-0.337-0.338-0.627-0.676c0-0.289-0.192-0.626-0.337-1.109
		c0.145-0.82,0.337-1.785,0.482-2.749c0.337,0,0.627,0,0.964-0.145c1.592,0.482,3.232,0.965,4.968,1.447
		c0,0.627,0.193,1.447,0.338,2.267c-1.109-0.193-2.267-0.337-3.376-0.482c-0.338,0-0.627,0-1.109,0.145
		c-0.193,0.964-0.482,1.929-0.82,3.086C334.992,343.832,334.992,343.832,334.848,343.639L334.848,343.639z M338.514,333.848
		c-0.145,0-0.289-0.193-0.627-0.337c0-0.482,0-0.965,0-1.447c0.145-0.337,0.338-0.627,0.482-1.109c0,0,0.145,0.145,0.337,0.289
		c0,0.82,0.146,1.64,0.29,2.412C338.852,333.655,338.706,333.655,338.514,333.848L338.514,333.848z M335.619,333.172
		c-0.145,0-0.289-0.145-0.627-0.29c0.338-2.749,0.627-5.498,1.109-8.247c0.193-0.627,0.338-1.447,0.676-2.219
		c0,0,0.145,0,0.289,0.145c0.193,1.109,0.338,2.412,0.482,3.714c-0.289,2.074-0.627,4.341-1.109,6.607
		c-0.145,0.145-0.338,0.29-0.627,0.482C335.813,333.365,335.813,333.365,335.619,333.172L335.619,333.172z M314.397,346.533
		c-5.161-0.145-10.322-0.29-15.482-0.482c-1.109,0-2.219,0.193-3.376,0.338c-0.145,0-0.29,0-0.627-0.145
		c-1.109-1.157-2.267-2.412-3.376-3.714c0-1.158,0.145-2.267,0.338-3.376c0.627-0.193,1.254-0.338,2.074-0.675
		c0.338-0.145,0.627-0.482,1.109-0.771c0.193-0.338,0.338-0.676,0.675-1.158c0-0.772,0.145-1.592,0.29-2.556
		c0-3.859,0-7.717,0-11.769c0-0.289-0.145-0.771-0.29-1.254c-0.964-0.964-1.929-1.929-3.087-3.087
		c-0.145-0.289-0.482-0.627-0.771-1.109c0-0.82,0-1.591-0.193-2.412c0-0.482,0.193-0.964,0.337-1.447
		c0.145,0,0.338-0.675,0.482-0.386l18.039-0.096c0.771,0,1.592,0.145,2.556,0.29c1.109,1.302,2.268,2.604,3.569,3.907
		c0,1.109,0,2.219-0.192,3.376c-0.82,0-1.592,0.145-2.412,0.289c-0.145,0-0.338,0.193-0.627,0.338
		c-0.145,0.53-0.53,1.013-0.482,2.267v11.914c0.145,0.145,0.29,0.482,0.627,0.771c1.109-0.627,2.268-1.447,3.569-2.219
		c0.627,0.145,1.254,0.29,1.93,0.627c0.964,1.109,1.93,2.412,3.038,3.714c-0.145,0.482-0.337,0.965-0.627,1.591
		c-1.447,2.267-3.087,4.679-4.679,7.09C315.989,346.388,315.169,346.388,314.397,346.533L314.397,346.533z M313.577,345.423
		c-0.145,0-0.337-0.145-0.627-0.337c-3.858,0-7.717,0-11.769-0.145c-0.145,0-0.337,0-0.482,0.145c-1.784,0-3.521-0.145-5.45-0.29
		c-0.482-0.482-0.964-0.965-1.64-1.64c0,0,0-0.145,0-0.29c0.337-0.193,0.675-0.338,1.158-0.53c2.412-0.145,4.968-0.29,7.572-0.482
		c1.592,0,3.183,0,4.823,0c0.29,0,0.772,0.193,1.254,0.337c1.303,0,2.605,0,3.859,0.145c0.675,0,1.302-0.145,2.122-0.29
		c1.254-1.93,2.556-4.052,3.858-6.125c0.338,0,0.627,0,0.965-0.145c0.338,0.29,0.627,0.627,1.109,1.109
		c0,0.338,0.192,0.627,0.338,0.965c-1.303,2.267-2.749,4.678-4.196,7.09c-0.145,0-0.29,0.145-0.482,0.337
		C315.169,345.279,314.397,345.279,313.577,345.423L313.577,345.423z M309.236,337.514c-0.145-0.145-0.337-0.29-0.482-0.483v-17.219
		c0.146-0.771,0.338-1.784,0.482-2.749c0-0.145,0.146-0.338,0.338-0.482c0.965-0.145,1.93-0.29,2.895-0.627
		c0.145-0.145,0.289-0.482,0.481-0.771c0.145,0,0.29,0,0.482-0.193c0.627,0.675,1.254,1.447,1.93,2.267c0,0.482,0,0.964,0,1.592
		c-0.676,0-1.447,0.193-2.268,0.338c-0.337,0.145-0.626,0.482-1.108,0.82l-0.097,16.302c-0.145,0.193-0.579,0.434-0.724,0.723
		C310.539,337.224,309.863,337.369,309.236,337.514L309.236,337.514z M271.085,351.838c-4.679-0.772-8.248-3.231-11.094-7.042
		c-2.604-4.341-3.569-8.585-3.086-13.553c0.337-1.736,0.82-3.521,1.302-5.45c3.183-7.814,10.129-10.901,15.145-11.286
		c5.546-0.241,9.212,1.784,13.022,5.643c1.833,2.412,2.701,4.582,3.569,7.235c0.675,5.498,0.723,7.524-0.482,13.215
		C286.085,348.076,279.091,351.838,271.085,351.838L271.085,351.838z M271.422,350.584c-1.302-0.145-2.604-0.675-4.051-0.964
		c0-0.193,0-0.337,0.192-0.482c4.534,0,6.994-0.868,11.093-2.411c7.717-4.631,8.248-10.226,8.875-18.859
		c0-0.482-0.192-1.11-0.337-1.785c0-0.29,0-0.627,0.145-0.965c0.192,0.482,0.482,1.158,0.82,1.785
		c1.302,5.836,1.013,9.405-0.82,14.807c-1.447,2.797-2.604,4.003-5.45,6.029C277.741,349.571,275.812,350.295,271.422,350.584
		L271.422,350.584z M270.747,344.314c-0.289,0-0.626-0.193-0.964-0.337c-0.627-0.482-0.675-0.965-0.772-1.64v-20.885
		c0-0.193,0.145-0.482,0.29-0.82c1.592-1.592,1.833-1.833,4.052-1.592c1.013,0.29,1.35,1.061,1.591,1.736
		c0,0.193,0,0.337-0.145,0.482c-0.627,0.337-1.447,0.82-2.267,1.302c-0.723,0.482-0.868,0.868-0.964,1.784v17.026
		C271.567,342.578,271.519,344.218,270.747,344.314L270.747,344.314z M272.821,342.867l0.048-17.412
		c0.048-0.386,0.048-0.772,0.097-1.158c0.192-0.724,1.254-1.109,1.833-1.109c0,0,0.145,0,0.338,0.193l0.048,17.99
		c-0.048,0.676-0.097,0.965-0.435,1.64C274.22,344.169,273.159,344.507,272.821,342.867L272.821,342.867z M217.836,399.348
		c-0.964-0.676-2.122-1.303-3.231-2.123c-0.145-0.145-0.337-0.482-0.482-0.771c0-2.267,0.145-4.534,0.337-6.945
		c0.482-0.627,0.964-1.447,1.447-2.219c0.627-1.495,1.254-2.942,2.074-4.389c0.145-0.965,0.483-2.074,0.82-3.183
		c0,0,0.145-0.193,0.29-0.338c0.193-2.267,0.337-4.679,0.482-7.09c0-5.643,0-11.238-0.145-17.074c-0.337,0-0.82,0.193-1.302,0.338
		c-0.29-0.145-0.771-0.338-1.254-0.482c-0.675-0.482-1.447-1.109-2.267-1.784c0-1.93,0-3.859,0.145-5.933l23.827-17.074
		c1.302-0.482,2.556-0.965,3.858-1.447c5.306-0.53,8.44,0,12.058,5.788c1.254,4.582,1.833,7.379,0.82,11.913
		c-0.482,1.158-0.964,2.267-1.447,3.376c-0.772,1.11-1.688,2.364-2.894,3.859l-12.396,8.875c0,0.145,0,0.482-0.145,0.82
		c0.145,0.145,0.29,0.482,0.627,0.771c0.627,0.482,1.303,0.965,1.929,1.447c0.145,0.193,0.338,0.482,0.627,0.82
		c0,0.965,0,1.929,0.193,3.039c0,0.193,0,0.482-0.193,0.82c-1.447,1.447-3.039,2.894-4.631,4.341
		c-1.784,1.93-3.569,3.859-5.498,5.788c-5.354,6.56-9.405,11.914-13.167,18.859C218.126,399.348,217.981,399.348,217.836,399.348
		L217.836,399.348z M217.644,397.418c-0.289-0.193-0.771-0.482-1.254-0.82c0-0.145-0.193-0.338-0.337-0.627
		c0.82-1.64,1.784-3.231,2.749-5.016c1.929-2.701,3.858-5.45,5.788-8.344c1.109-1.447,2.412-3.087,3.666-4.678
		c2.942-2.894,5.981-5.933,9.02-9.02c0-0.145,0.193-0.338,0.337-0.627c0-0.82,0-1.785,0.145-2.749c0,0,0.193,0,0.338-0.145
		c0.627,0.482,1.302,0.964,2.074,1.447c0,0.29,0.193,0.772,0.338,1.254c0,0.482-0.145,1.157-0.338,1.785
		c-1.447,1.302-2.894,2.604-4.341,4.051c0,0.145-0.145,0.29-0.29,0.627c-0.964,0.964-1.929,1.93-3.087,2.894
		c-1.929,2.267-3.858,4.678-5.788,7.09c-1.785,2.412-3.521,4.968-5.451,7.572c-0.82,1.447-1.784,3.039-2.749,4.63
		C218.319,396.936,217.981,397.08,217.644,397.418L217.644,397.418z M232.933,365.199c0,0-0.145-0.145-0.289-0.29
		c0-0.482,0-1.158-0.193-1.785c0.193-0.337,0.482-0.627,0.82-1.109l12.733-9.212c0.482-0.482,1.109-0.964,1.736-1.447
		c3.424-3.81,4.534-5.016,5.161-10.273c0-1.64,0-3.376,0.145-5.161c0.192,0.145,0.337,0.482,0.675,0.82
		c0.145,0.965,0.29,2.074,0.627,3.184c0,0.964,0,1.929,0.145,2.942c-0.29,3.907-0.965,6.078-4.148,9.791l-14.808,10.611
		c-0.193,0.338-0.337,0.82-0.675,1.302c-0.289,0.145-0.626,0.338-1.109,0.627C233.608,365.199,233.271,365.199,232.933,365.199
		L232.933,365.199z M232.933,356.034v-16.881c0.675-0.482,1.447-0.964,2.267-1.447c0.337,0,0.627-0.193,0.964-0.338
		c0.627,0,1.303,0,1.93,0.145c0,0,0.145,0.193,0.337,0.337c0,0.145,0,0.338,0,0.482c-0.675,0.482-1.302,0.964-1.929,1.447
		c-0.338,0.337-0.868,0.82-1.35,1.302l0.048,12.878c-0.145,0.29-0.338,0.627-0.482,1.109c-0.337,0.145-0.627,0.482-1.109,0.82
		C233.416,355.89,233.271,355.89,232.933,356.034L232.933,356.034z M217.981,353.768c-0.145,0-0.482-0.145-0.82-0.29
		c-0.145-0.337-0.289-0.82-0.482-1.302c0-0.145,0.193-0.338,0.338-0.482c0.482,0,1.109,0,1.785-0.145
		c0.145,0.29,0.29,0.627,0.627,1.109c0,0.145-0.145,0.482-0.337,0.82C218.801,353.478,218.464,353.623,217.981,353.768
		L217.981,353.768z M236.937,352.707l0.048-11.142c0-0.193,0.146-0.338,0.29-0.482c0.482-0.193,0.964-0.482,1.447-0.82
		c0,0.145,0.193,0.337,0.337,0.482c0,2.604,0,5.305,0.145,8.055c-0.482,0.964-0.965,2.074-1.447,3.231
		C237.612,352.176,237.274,352.514,236.937,352.707L236.937,352.707z"/>
	<path fill-rule="evenodd" clip-rule="evenodd" fill="#008348" d="M380.138,429.879l1.93,1.012l0.241-0.723l-2.026-0.676
		L380.138,429.879L380.138,429.879z M389.929,432.096c-0.675-0.771-1.398-1.494-2.122-2.121c0-0.049,0-0.096-0.048-0.145
		c0.192-0.387,0.386-0.82,0.627-1.254c0.048,0,0.145,0,0.241,0.047c0.434,0.242,0.868,0.482,1.351,0.773
		c0.965,0.771,1.254,1.061,1.929,2.121C391.279,431.807,390.604,431.951,389.929,432.096L389.929,432.096z M380.62,433.834
		c-0.192-0.193-0.289-0.291-0.435-0.531c-0.096-0.289-0.192-0.531-0.24-0.916c0-0.773,0-1.496-0.048-2.268
		c-0.049-0.385-0.146-0.338-0.387-0.482c-0.289-0.049-0.579-0.096-0.868-0.193c-0.192-0.096-0.434-0.193-0.675-0.289
		c0-0.385,0-0.482,0.386-0.676c0.145,0.049,0.289,0.098,0.53,0.193c0.386,0.242,0.724,0.387,1.157,0.578c0.145,0,0.29,0,0.387-0.047
		c0.627-0.676,1.205-1.063,1.929-1.398c1.351-0.338,2.604-0.387,4.582,0.096c0.241,0.096,0.482,0.193,0.724,0.24
		c-0.048,0.146-0.097,0.291-0.145,0.482c-1.157,2.316-4.1,4.246-6.512,5.064L380.62,433.834L380.62,433.834z M386.167,434.268
		c0.145-0.965,0.241-1.689-0.048-2.605c0.53-0.434,0.771-0.771,0.916-1.012c0.048,0,0.097-0.049,0.192-0.098
		c0.097,0.049,0.29,0.098,0.435,0.145c1.013,0.869,2.171,1.979,2.46,3.281C389.206,434.557,387.18,434.652,386.167,434.268
		L386.167,434.268z M390.219,436.293c-0.049,0-0.145-0.049-0.193-0.096l-0.53-1.207c0.289,0,1.206-0.289,1.447-0.482
		c0-0.096,0-0.24-0.049-0.385c-0.145-0.387-0.241-0.771-0.435-1.158c0,0,0,0,0.049-0.049c0.145,0,1.109-0.289,1.206-0.338
		c0.097,0,0.145,0,0.241,0.049c0.145,0.145,0.241,0.338,0.386,0.482c0.338,0.676,0.53,1.352,0.435,2.17
		c-0.387,0.482-1.447,0.82-2.509,1.063C390.267,436.342,390.267,436.342,390.219,436.293L390.219,436.293z M384.575,436.438
		c-0.53,0.049-2.701-1.398-3.087-1.832c0-0.049,0-0.098,0-0.193c0.482,0,3.906-2.074,3.955-2.17c0-0.049,0.097,0,0.145,0.047
		c0,0.049,0.049,0.098,0.097,0.098c0,1.494-0.29,2.652-0.916,4.002C384.72,436.389,384.624,436.389,384.575,436.438L384.575,436.438
		z M385.491,436.775c0-0.049,0-0.098-0.048-0.098c0.145-0.529,0.338-1.156,0.53-1.688c0.579,0.145,1.688,0.289,2.846,0.096
		c0.241,0.436,0.387,1.014,0.676,1.545c0,0.047,0,0.096,0,0.191C388.868,437.016,386.07,437.209,385.491,436.775L385.491,436.775z
		 M374.254,424.283c-0.049-0.049-0.145-0.145-0.193-0.193c-0.145-0.434-0.289-0.867-0.386-1.35
		c-1.013-0.771-3.039-1.641-3.039-3.473c1.255,0.529,0.868,1.832,2.99,2.121c0.29-0.047,0.193-0.191,0.241-0.338
		c-0.192-2.025-0.048-4.002-0.145-6.029c0-0.963-0.048-2.361,0.387-3.279c0.53,1.303,0.53,2.268,0.53,3.426
		c0,1.832-0.097,3.713,0,5.545c0,0.291-0.048,0.338,0.048,0.629c0.241,0.145,0.193,0.096,0.482,0.047
		c1.398-0.482,1.736-1.109,2.653-2.025c-0.049,1.785-2.026,2.846-2.701,3.039c-0.146,0.096-0.241,0.24-0.29,0.434
		c-0.145,0.434-0.289,0.916-0.482,1.398C374.35,424.234,374.302,424.234,374.254,424.283L374.254,424.283z M374.013,425.199
		c-0.338,0.289-1.254,0.387-1.785,0.482c-2.99,0-5.257-0.531-7.09-3.086c-0.145-0.773-0.289-1.447-0.338-2.219
		c0-0.098,0.049-0.193,0.097-0.291c0-0.047,0.097-0.096,0.192-0.145c0.387,0,1.014,0.049,1.303-0.145c0,0,0,0-0.048-0.047
		c0,0,0-0.049,0.048-0.098c-0.145-1.881-0.192-2.41,0.338-4.195c0.097,0,0.192,0,0.289-0.049c0.724,0.387,1.978,0.482,2.46,0.627
		c0.049-0.096,0.097-0.193,0.193-0.24c0,0,0,0-0.049-0.049c0-0.049,0.049-0.096,0.097-0.145c0.289-2.219,1.784-5.98,4.293-6.607
		c2.604,0.627,3.714,4.727,4.485,6.994c0.048,0,0.145,0,0.192,0.047c0.82-0.193,1.592-0.338,2.364-0.578
		c0.048,0,0.145,0.047,0.192,0.047c0.53,1.4,0.579,2.363,0.435,3.811c0,0.145,0.048,0.291,0.096,0.482c0,0,0,0.049,0.049,0.098
		c0.241,0,0.965,0.047,1.157,0.096c0.048,0.049,0.145,0.096,0.241,0.145c0,0.096,0,0.242,0.049,0.338c0,0.338,0,0.676,0,1.014
		c-0.676,2.314-2.46,3.617-4.534,4.051C377.727,425.779,374.736,425.924,374.013,425.199L374.013,425.199z M374.881,404.846
		c-0.049-0.049-0.145-0.096-0.241-0.145c-0.241-0.387-0.53-0.771-0.772-1.158c-1.205-0.434-3.424-0.627-3.954-2.363
		c1.35,0.098,1.35,1.447,3.473,1.109c0.289-0.145,0.145-0.289,0.145-0.434c-0.82-1.834-1.254-3.762-2.026-5.644
		c-0.289-0.917-0.771-2.267-0.627-3.28c0.917,1.109,1.206,2.026,1.592,3.087c0.579,1.737,1.062,3.618,1.736,5.305
		c0.049,0.242,0.049,0.338,0.193,0.578c0.289,0.049,0.241,0,0.482-0.096c1.157-0.867,1.302-1.641,1.881-2.748
		c0.482,1.688-1.013,3.279-1.64,3.713c-0.097,0.145-0.146,0.289-0.146,0.482c0.049,0.482,0,0.965,0,1.496
		C374.929,404.75,374.929,404.75,374.881,404.846L374.881,404.846z M374.929,405.762c-0.192,0.387-1.062,0.771-1.543,1.014
		c-2.846,0.916-5.113,1.109-7.718-0.725c-0.337-0.723-0.675-1.301-0.964-2.025c-0.049-0.096-0.049-0.193-0.049-0.289
		c0.049-0.098,0.097-0.145,0.193-0.193c0.337-0.145,0.964-0.289,1.206-0.531c0,0,0-0.047-0.049-0.047c0,0-0.048-0.049,0-0.098
		c-0.724-1.736-0.917-2.219-1.013-4.146c0.096,0,0.192-0.049,0.289-0.098c0.82,0.145,1.978-0.145,2.557-0.193
		c0-0.096,0-0.191,0.048-0.289c0,0,0,0-0.048,0c0-0.047,0.048-0.096,0.048-0.145c-0.434-2.218-0.145-6.27,2.026-7.62
		c2.701-0.193,5.063,3.328,6.463,5.257c0.048-0.048,0.097-0.048,0.192-0.048c0.724-0.434,1.399-0.772,2.074-1.254
		c0.048-0.048,0.145,0,0.193,0c0.916,1.158,1.254,2.026,1.592,3.472c0.048,0.146,0.145,0.291,0.192,0.436
		c0.049,0,0.097,0.047,0.145,0.096c0.193-0.096,0.917-0.289,1.109-0.289c0.049,0,0.145,0.049,0.241,0.096
		c0.048,0.049,0.097,0.193,0.193,0.289c0.097,0.291,0.192,0.629,0.289,0.918c0.097,2.459-1.205,4.244-3.038,5.256
		C378.69,405.184,375.846,406.244,374.929,405.762L374.929,405.762z M368.803,442.273c0.049-0.049,0.145-0.096,0.242-0.145
		c0.241-0.387,0.434-0.771,0.675-1.205c1.206-0.482,3.376-0.773,3.811-2.557c-1.303,0.193-1.254,1.543-3.376,1.254
		c-0.29-0.096-0.146-0.242-0.193-0.387c0.724-1.881,1.109-3.857,1.736-5.787c0.241-0.916,0.675-2.268,0.482-3.279
		c-0.868,1.156-1.109,2.074-1.447,3.184c-0.482,1.783-0.819,3.617-1.446,5.354c-0.049,0.289,0,0.338-0.193,0.627
		c-0.241,0.047-0.193,0-0.435-0.098c-1.205-0.818-1.446-1.543-2.073-2.652c-0.386,1.736,1.254,3.279,1.832,3.666
		c0.145,0.145,0.193,0.289,0.193,0.482c0,0.434,0.048,0.916,0.048,1.447C368.707,442.178,368.755,442.225,368.803,442.273
		L368.803,442.273z M368.803,443.189c0.193,0.387,1.11,0.725,1.592,0.965c2.895,0.771,5.161,0.82,7.621-1.158
		c0.338-0.723,0.627-1.301,0.916-2.072c0-0.098,0-0.193,0-0.289c-0.048-0.049-0.096-0.146-0.192-0.193
		c-0.338-0.098-0.965-0.242-1.206-0.436c0,0,0-0.047,0.049-0.096c0,0,0-0.049,0-0.096c0.627-1.736,0.771-2.268,0.771-4.148
		c-0.097,0-0.193-0.049-0.289-0.096c-0.82,0.191-2.026-0.049-2.557-0.049c0-0.098-0.049-0.193-0.097-0.289c0,0,0,0,0.048-0.049
		c0,0,0-0.049-0.048-0.098c0.338-2.266-0.192-6.27-2.411-7.523c-2.701-0.047-4.872,3.617-6.174,5.596
		c-0.049,0-0.097-0.049-0.193-0.049c-0.724-0.385-1.447-0.676-2.122-1.158c-0.048,0-0.145,0-0.241,0.049
		c-0.82,1.207-1.109,2.074-1.398,3.57c0,0.096-0.097,0.24-0.193,0.385c0,0.049-0.048,0.098-0.097,0.098
		c-0.192-0.049-0.916-0.193-1.157-0.193c-0.048,0-0.097,0.049-0.241,0.096c0,0.098-0.048,0.193-0.145,0.289
		c-0.097,0.338-0.193,0.627-0.241,0.965c0.048,2.412,1.447,4.148,3.328,5.064C365.041,442.852,367.887,443.721,368.803,443.189
		L368.803,443.189z M358.53,458.143c0.096,0,0.192-0.049,0.289-0.049c0.338-0.289,0.675-0.627,1.013-0.965
		c1.303-0.145,3.473,0.242,4.39-1.303c-1.303-0.24-1.641,1.063-3.618,0.193c-0.24-0.193-0.048-0.289-0.048-0.434
		c1.254-1.592,2.171-3.377,3.328-5.016c0.53-0.771,1.302-1.979,1.447-2.99c-1.158,0.82-1.688,1.639-2.315,2.604
		c-0.965,1.543-1.881,3.232-2.942,4.727c-0.145,0.242-0.145,0.338-0.338,0.482c-0.289,0-0.241,0-0.434-0.193
		c-0.917-1.109-0.917-1.881-1.206-3.135c-0.868,1.543,0.241,3.473,0.724,4.053c0.048,0.145,0.048,0.289,0,0.48
		c-0.145,0.482-0.241,0.918-0.338,1.447C358.481,458.045,358.53,458.094,358.53,458.143L358.53,458.143z M358.289,459.059
		c0.096,0.434,0.819,1.012,1.253,1.35c2.509,1.592,4.728,2.316,7.621,1.109c0.531-0.578,1.013-1.061,1.495-1.688
		c0.049-0.096,0.049-0.145,0.049-0.289c0-0.049-0.049-0.145-0.097-0.24c-0.338-0.193-0.868-0.484-1.061-0.773
		c0,0,0.048-0.047,0.096-0.047c0,0,0-0.049,0-0.098c1.157-1.494,1.447-1.93,1.978-3.762c-0.096-0.049-0.145-0.096-0.241-0.193
		c-0.82-0.047-1.929-0.627-2.411-0.771c0-0.096,0-0.193-0.049-0.289c0,0,0,0,0.097,0c0-0.049,0-0.096-0.048-0.193
		c0.965-2.025,1.64-6.029-0.097-7.861c-2.604-0.82-5.691,2.025-7.524,3.521c-0.048,0-0.096-0.049-0.192-0.049
		c-0.579-0.578-1.157-1.109-1.688-1.736C357.421,447,357.324,447,357.228,447c-1.157,0.916-1.688,1.688-2.363,2.99
		c-0.048,0.098-0.193,0.242-0.289,0.338c-0.049,0.049-0.097,0.049-0.146,0.098c-0.192-0.146-0.819-0.482-1.013-0.58
		c-0.048,0.049-0.145,0.049-0.289,0.049c-0.048,0.049-0.145,0.145-0.241,0.24c-0.145,0.291-0.338,0.58-0.53,0.82
		c-0.627,2.363,0.192,4.389,1.736,5.836C354.768,457.611,357.275,459.301,358.289,459.059L358.289,459.059z M343.771,470.73
		c0.049,0,0.193,0,0.29,0c0.386-0.145,0.819-0.338,1.302-0.578c1.254,0.289,3.279,1.301,4.679,0.096
		c-1.206-0.627-1.93,0.531-3.617-0.965c-0.145-0.24,0.048-0.289,0.097-0.385c1.735-1.158,3.183-2.605,4.871-3.859
		c0.724-0.627,1.881-1.543,2.314-2.459c-1.398,0.434-2.122,1.061-3.038,1.783c-1.446,1.254-2.894,2.557-4.389,3.715
		c-0.241,0.145-0.241,0.24-0.531,0.338c-0.241-0.098-0.192-0.098-0.338-0.289c-0.53-1.447-0.289-2.172-0.145-3.473
		c-1.351,1.254-0.916,3.473-0.627,4.146c0.049,0.193,0,0.338-0.145,0.531c-0.241,0.387-0.482,0.82-0.771,1.254
		C343.723,470.635,343.771,470.682,343.771,470.73L343.771,470.73z M343.192,471.502c-0.049,0.482,0.53,1.254,0.819,1.736
		c1.93,2.363,3.859,3.762,7.091,3.521c0.675-0.387,1.302-0.723,1.978-1.205c0.048-0.049,0.096-0.146,0.145-0.242
		c0.048-0.049,0-0.145,0-0.24c-0.289-0.338-0.724-0.771-0.771-1.109c0,0,0-0.049,0.048-0.049c0,0,0.048,0,0.048-0.098
		c1.592-1.061,2.026-1.398,3.087-3.037c-0.048-0.049-0.097-0.098-0.145-0.242c-0.771-0.289-1.64-1.205-2.122-1.543
		c0.048-0.096,0.097-0.145,0.097-0.289c0,0,0,0,0.048,0s0.048-0.049,0.048-0.145c1.592-1.689,3.521-5.354,2.364-7.717
		c-2.22-1.641-6.174,0.191-8.441,1.061c-0.048,0-0.096-0.096-0.192-0.145c-0.338-0.725-0.771-1.398-1.062-2.219
		c-0.048,0-0.145-0.049-0.241-0.096c-1.398,0.529-2.17,1.107-3.231,2.17c-0.097,0.096-0.241,0.145-0.434,0.24
		c0,0.049-0.049,0-0.146,0c-0.145-0.145-0.627-0.723-0.819-0.82c-0.048,0-0.145-0.047-0.241-0.047
		c-0.097,0.047-0.192,0.096-0.338,0.145c-0.241,0.193-0.53,0.434-0.771,0.627c-1.351,2.074-1.206,4.34-0.193,6.223
		C340.25,468.994,342.131,471.406,343.192,471.502L343.192,471.502z"/>
</g>
</svg>
